<svg width="40" height="40" viewBox="0 0 40 40" fill="none" xmlns="http://www.w3.org/2000/svg">
<path d="M20 0L24.9443 4.7831L31.7557 3.81966L32.9443 10.5954L39.0211 13.8197L36 20L39.0211 26.1803L32.9443 29.4046L31.7557 36.1803L24.9443 35.2169L20 40L15.0557 35.2169L8.2443 36.1803L7.05573 29.4046L0.97887 26.1803L4 20L0.97887 13.8197L7.05573 10.5954L8.2443 3.81966L15.0557 4.7831L20 0Z" fill="white"/>
<path d="M17.5497 26.2857C17.3083 26.2863 17.0692 26.2399 16.8463 26.1494C16.6234 26.0588 16.421 25.9258 16.251 25.7582L11.3504 20.9626C11.0258 20.6217 10.8491 20.1708 10.8575 19.705C10.8659 19.2391 11.0587 18.7946 11.3954 18.4651C11.7321 18.1356 12.1864 17.9469 12.6625 17.9386C13.1386 17.9304 13.5994 18.1033 13.9477 18.421L17.5497 21.9433L26.0523 13.6255C26.4007 13.3078 26.8615 13.1349 27.3376 13.1431C27.8137 13.1513 28.2679 13.3401 28.6046 13.6695C28.9413 13.999 29.1342 14.4435 29.1426 14.9094C29.151 15.3753 28.9743 15.8262 28.6497 16.1671L18.8484 25.7582C18.6784 25.9258 18.476 26.0588 18.2531 26.1494C18.0302 26.2399 17.7911 26.2863 17.5497 26.2857Z" fill="#00B0E1"/>
</svg>
