<svg width="51" height="62" viewBox="0 0 51 62" fill="none" xmlns="http://www.w3.org/2000/svg">
<path d="M33.4035 36.6785V60.3122C33.4035 60.4689 33.3599 60.6226 33.2775 60.7559C33.195 60.8893 33.0771 60.997 32.9369 61.0671C32.7967 61.1372 32.6398 61.1669 32.4837 61.1528C32.3275 61.1388 32.1784 61.0815 32.053 60.9874L25.807 56.3029L19.5609 60.9874C19.4355 61.0815 19.2864 61.1388 19.1303 61.1528C18.9742 61.1669 18.8172 61.1372 18.677 61.0671C18.5368 60.997 18.4189 60.8893 18.3365 60.7559C18.2541 60.6226 18.2104 60.4689 18.2104 60.3122V36.6785C18.2104 36.4547 18.2994 36.24 18.4577 36.0817C18.616 35.9234 18.8307 35.8345 19.0545 35.8345H32.5595C32.7833 35.8345 32.998 35.9234 33.1563 36.0817C33.3146 36.24 33.4035 36.4547 33.4035 36.6785Z" fill="#00B0E1"/>
<path d="M25.5001 0L31.6461 5.94572L40.1132 4.7481L41.5907 13.1709L49.1446 17.1788L45.3892 24.8614L49.1446 32.544L41.5907 36.5519L40.1132 44.9747L31.6461 43.7771L25.5001 49.7228L19.354 43.7771L10.8869 44.9747L9.40943 36.5519L1.85547 32.544L5.61095 24.8614L1.85547 17.1788L9.40943 13.1709L10.8869 4.7481L19.354 5.94572L25.5001 0Z" fill="white"/>
<g clip-path="url(#clip0_15_432)">
<path d="M15.4598 19.588C13.0726 23.7306 14.5902 30.0172 17.2301 33.829C18.5478 35.7347 19.8819 37.4454 21.7092 37.4454C21.7436 37.4454 21.7782 37.4447 21.8135 37.4433C22.6721 37.4091 23.2925 37.1448 23.8923 36.8893C24.5657 36.6023 25.2622 36.3056 26.3547 36.3056C27.394 36.3056 28.0573 36.5927 28.6987 36.8703C29.3309 37.1438 29.982 37.4267 30.9441 37.4086C33.0024 37.3703 34.2661 35.5244 35.3811 33.896C36.5446 32.1957 37.1282 30.5449 37.3252 29.914L37.3331 29.8889C37.3513 29.8348 37.3487 29.7758 37.326 29.7234C37.3033 29.671 37.2621 29.6289 37.2102 29.605C37.2072 29.6037 37.1963 29.5991 37.1932 29.5978C36.8308 29.4496 33.6513 28.0391 33.6179 24.1947C33.5869 21.0714 36.0031 19.4174 36.4877 19.1176L36.5103 19.1035C36.5363 19.0868 36.5586 19.065 36.5761 19.0395C36.5935 19.014 36.6057 18.9852 36.6118 18.9549C36.6179 18.9246 36.6179 18.8933 36.6118 18.863C36.6056 18.8327 36.5934 18.804 36.576 18.7785C34.9082 16.3378 32.352 15.97 31.3229 15.9257C31.1706 15.9107 31.0176 15.9032 30.8646 15.9033C29.6558 15.9033 28.4979 16.3598 27.5676 16.7267C26.9255 16.9799 26.3708 17.1985 25.9883 17.1985C25.5584 17.1985 25.0006 16.9772 24.3546 16.7209C23.4909 16.3781 22.5118 15.9896 21.4753 15.9896C21.4506 15.9896 21.4263 15.9899 21.4023 15.9903C18.9924 16.0258 16.7152 17.4045 15.4598 19.588Z" fill="#1B1B1B"/>
<path d="M31.325 9.20815C29.8657 9.26759 28.115 10.1659 27.0686 11.3915C26.1794 12.4217 25.3107 14.1393 25.5396 15.8706C25.5465 15.9231 25.5713 15.9717 25.6098 16.0082C25.6483 16.0447 25.6981 16.0668 25.751 16.0709C25.8495 16.0786 25.9501 16.0825 26.0502 16.0826C27.4772 16.0826 29.0166 15.2931 30.0679 14.022C31.1743 12.6797 31.7338 10.9571 31.5645 9.41415C31.5578 9.35599 31.5295 9.30249 31.4851 9.26432C31.4407 9.22614 31.3835 9.20609 31.325 9.20815Z" fill="#1B1B1B"/>
</g>
<defs>
<clipPath id="clip0_15_432">
<rect width="28.2376" height="28.2376" fill="white" transform="translate(11.6882 9.20801)"/>
</clipPath>
</defs>
</svg>
