<svg width="24" height="24" viewBox="0 0 24 24" fill="none" xmlns="http://www.w3.org/2000/svg">
<g clip-path="url(#clip0_25_1119)">
<path fill-rule="evenodd" clip-rule="evenodd" d="M23.561 21.1103C23.4016 21.2692 23.2094 21.4723 23.0057 21.6872C22.4972 22.2269 21.8619 22.8977 21.4638 23.1698C19.3689 24.6013 16.5664 23.9163 14.584 23.0903C11.9689 22.0007 9.12173 19.9923 6.5653 17.4356C4.00649 14.8786 1.99827 12.0306 0.908664 9.417C0.0836635 7.43419 -0.602727 4.63106 0.828976 2.53575C1.10085 2.13731 1.77327 1.50305 2.31224 0.993562C2.52787 0.790406 2.72943 0.598453 2.8888 0.439593C3.17175 0.158051 3.55467 0 3.95383 0C4.35298 0 4.7359 0.158051 5.01885 0.439593L8.87329 4.29291C9.15468 4.57584 9.31263 4.95866 9.31263 5.3577C9.31263 5.75673 9.15468 6.13955 8.87329 6.42248L7.82329 7.47037C7.47263 7.81847 7.24374 8.2705 7.17069 8.75917C7.09764 9.24784 7.18433 9.74704 7.41787 10.1825C8.86207 12.9083 11.0917 15.1375 13.8177 16.5812C14.253 16.8147 14.7521 16.9013 15.2407 16.8281C15.7292 16.7549 16.181 16.5259 16.5289 16.1752L17.5763 15.1272C17.8592 14.8457 18.2422 14.6876 18.6413 14.6876C19.0405 14.6876 19.4234 14.8457 19.7063 15.1272L23.561 18.9812C23.8424 19.264 24.0004 19.6468 24.0004 20.0457C24.0004 20.4447 23.8424 20.8275 23.561 21.1103Z" fill="white"/>
</g>
<defs>
<clipPath id="clip0_25_1119">
<rect width="24" height="24" fill="white"/>
</clipPath>
</defs>
</svg>
