<svg width="24" height="24" viewBox="0 0 24 24" fill="none" xmlns="http://www.w3.org/2000/svg">
<g clip-path="url(#clip0_6_25)">
<path d="M22.2433 2.18184H4.36362C4.30978 2.18184 4.26063 2.20209 4.21016 2.21727L3.7707 0.773131C3.70262 0.549439 3.56445 0.353546 3.37658 0.214344C3.18871 0.0751416 2.96108 -5.0609e-07 2.72726 0L0.545472 0C0.244227 0 0 0.244227 0 0.545472V1.63636C0 1.93761 0.244227 2.18184 0.545472 2.18184H1.91925L5.32729 13.3812L4.05445 14.8662C3.55137 15.4531 3.32484 16.2617 3.55638 16.9992C3.85251 17.9424 4.68496 18.5454 5.64474 18.5454H21.2727C21.574 18.5454 21.8182 18.3012 21.8182 18V16.9091C21.8182 16.6078 21.574 16.3636 21.2727 16.3636H5.64469L7.37377 14.3464C7.41723 14.2956 7.44919 14.2384 7.48218 14.1818H18.0522C18.4664 14.1818 18.872 14.0639 19.2217 13.842C19.5713 13.6201 19.8507 13.3033 20.027 12.9286L23.8333 4.84032C23.9427 4.60633 23.9996 4.35125 24 4.09296V3.93847C24 2.96837 23.2135 2.18184 22.2433 2.18184Z" fill="#374D7B"/>
<path d="M6.54548 24.0001C7.75048 24.0001 8.72732 23.0233 8.72732 21.8183C8.72732 20.6133 7.75048 19.6365 6.54548 19.6365C5.34049 19.6365 4.36365 20.6133 4.36365 21.8183C4.36365 23.0233 5.34049 24.0001 6.54548 24.0001Z" fill="#374D7B"/>
<path d="M19.6364 24.0001C20.8414 24.0001 21.8182 23.0233 21.8182 21.8183C21.8182 20.6133 20.8414 19.6365 19.6364 19.6365C18.4314 19.6365 17.4545 20.6133 17.4545 21.8183C17.4545 23.0233 18.4314 24.0001 19.6364 24.0001Z" fill="#374D7B"/>
</g>
<defs>
<clipPath id="clip0_6_25">
<rect width="24" height="24" fill="white"/>
</clipPath>
</defs>
</svg>
