<svg width="253" height="253" viewBox="0 0 253 253" fill="none" xmlns="http://www.w3.org/2000/svg">
<g clip-path="url(#clip0_25_851)">
<path d="M170.973 157.631C168.244 157.631 166.031 159.843 166.031 162.572V196.668C166.031 210.291 154.948 221.375 141.324 221.375H87.9728C85.2447 221.375 83.0334 223.585 83.0314 226.313L83.0245 236.137L71.2304 224.344C70.846 223.462 70.2125 222.711 69.4074 222.183C68.6024 221.656 67.661 221.375 66.6986 221.375H34.5898C20.9664 221.375 9.88281 210.291 9.88281 196.668V120.57C9.88281 106.947 20.9664 95.8633 34.5898 95.8633H84.498C87.2267 95.8633 89.4395 93.651 89.4395 90.9219C89.4395 88.1927 87.2267 85.9805 84.498 85.9805H34.5898C15.517 85.9805 0 101.497 0 120.57V196.668C0 215.741 15.517 231.258 34.5898 231.258H64.1681L84.463 251.553C85.1537 252.244 86.0338 252.714 86.992 252.905C87.9502 253.096 88.9434 252.998 89.8461 252.624C90.749 252.251 91.5208 251.618 92.0641 250.806C92.6074 249.994 92.8977 249.039 92.8984 248.062L92.9103 231.258H141.324C160.397 231.258 175.914 215.741 175.914 196.668V162.572C175.914 159.843 173.701 157.631 170.973 157.631Z" fill="white"/>
<path d="M181.179 0H168.673C129.071 0 96.8516 32.219 96.8516 71.8214C96.8516 111.424 129.071 143.642 168.672 143.642H181.179C187.36 143.642 193.478 142.857 199.407 141.305L217.882 159.77C218.573 160.46 219.454 160.931 220.412 161.121C221.37 161.311 222.364 161.213 223.267 160.839C224.169 160.465 224.941 159.832 225.484 159.019C226.027 158.207 226.316 157.252 226.316 156.274V127.685C234.138 121.351 240.636 113.349 245.196 104.41C250.375 94.2578 253 83.2933 253 71.8214C253 32.219 220.781 0 181.179 0ZM218.402 121.329C217.79 121.789 217.295 122.386 216.953 123.071C216.611 123.756 216.434 124.511 216.434 125.276V144.35L204.341 132.264C203.706 131.63 202.911 131.18 202.04 130.964C201.169 130.748 200.255 130.773 199.397 131.036C193.515 132.844 187.386 133.76 181.179 133.76H168.673C134.519 133.76 106.734 105.974 106.734 71.8214C106.734 37.6683 134.52 9.88281 168.673 9.88281H181.179C215.332 9.88281 243.117 37.6683 243.117 71.8214C243.117 91.4541 234.109 109.499 218.402 121.329Z" fill="white"/>
<path d="M197.178 54.0694C196.465 43.7246 188.126 35.3855 177.781 34.6724C171.916 34.2697 166.32 36.2477 162.036 40.2468C157.811 44.1905 155.388 49.7654 155.388 55.5424C155.388 58.2716 157.601 60.4838 160.33 60.4838C163.059 60.4838 165.271 58.2716 165.271 55.5424C165.271 52.4496 166.517 49.5831 168.78 47.4716C171.04 45.3622 173.994 44.318 177.102 44.5325C182.551 44.908 186.944 49.3005 187.319 54.7493C187.699 60.2526 184.088 65.1159 178.735 66.3137C174.397 67.2842 171.368 71.0535 171.368 75.4795V87.3513C171.368 90.0804 173.581 92.2927 176.309 92.2927C179.039 92.2927 181.251 90.0804 181.25 87.3513V75.8743C191.207 73.4689 197.887 64.3579 197.178 54.0694ZM179.803 103.404C178.884 102.485 177.609 101.956 176.309 101.956C175.01 101.956 173.735 102.485 172.816 103.404C171.893 104.333 171.372 105.588 171.368 106.897C171.368 108.202 171.897 109.477 172.816 110.396C173.735 111.315 175.01 111.839 176.309 111.839C177.609 111.839 178.884 111.315 179.803 110.396C180.726 109.465 181.246 108.209 181.251 106.897C181.251 105.598 180.722 104.323 179.803 103.404ZM135.889 153.184H31.625C28.8964 153.184 26.6836 155.396 26.6836 158.125C26.6836 160.854 28.8964 163.066 31.625 163.066H135.889C138.618 163.066 140.83 160.854 140.83 158.125C140.83 155.396 138.617 153.184 135.889 153.184ZM139.382 182.303C138.463 181.384 137.188 180.855 135.889 180.855C134.589 180.855 133.314 181.384 132.395 182.303C131.476 183.222 130.947 184.497 130.947 185.797C130.947 187.096 131.476 188.371 132.395 189.29C133.314 190.21 134.589 190.738 135.889 190.738C137.188 190.738 138.463 190.21 139.382 189.29C140.306 188.362 140.827 187.107 140.83 185.797C140.83 184.497 140.301 183.222 139.382 182.303ZM116.453 180.855H31.625C28.8964 180.855 26.6836 183.068 26.6836 185.797C26.6836 188.526 28.8964 190.738 31.625 190.738H116.453C119.182 190.738 121.394 188.526 121.394 185.797C121.394 183.068 119.181 180.855 116.453 180.855ZM103.77 125.512H31.625C28.8964 125.512 26.6836 127.724 26.6836 130.453C26.6836 133.182 28.8964 135.395 31.625 135.395H103.77C106.499 135.395 108.711 133.182 108.711 130.453C108.711 127.724 106.498 125.512 103.77 125.512Z" fill="white"/>
</g>
<defs>
<clipPath id="clip0_25_851">
<rect width="253" height="253" fill="white"/>
</clipPath>
</defs>
</svg>
