<svg width="24" height="24" viewBox="0 0 24 24" fill="none" xmlns="http://www.w3.org/2000/svg">
<g clip-path="url(#clip0_6_42)">
<path fill-rule="evenodd" clip-rule="evenodd" d="M23.5611 21.1105C23.4018 21.2694 23.2096 21.4726 23.0058 21.6874C22.4973 22.2271 21.8621 22.898 21.4639 23.17C19.3691 24.6015 16.5665 23.9166 14.5841 23.0906C11.969 22.001 9.12185 19.9926 6.56543 17.4358C4.00661 14.8789 1.99839 12.0309 0.908786 9.41724C0.0837855 7.43443 -0.602605 4.63131 0.829098 2.53599C1.10097 2.13756 1.7734 1.50329 2.31236 0.993806C2.52799 0.79065 2.72955 0.598697 2.88893 0.439838C3.17188 0.158295 3.55479 0.000244141 3.95395 0.000244141C4.35311 0.000244141 4.73602 0.158295 5.01897 0.439838L8.87341 4.29315C9.1548 4.57609 9.31275 4.9589 9.31275 5.35794C9.31275 5.75698 9.1548 6.13979 8.87341 6.42273L7.82341 7.47062C7.47275 7.81872 7.24386 8.27074 7.17081 8.75941C7.09776 9.24809 7.18445 9.74728 7.41799 10.1827C8.8622 12.9085 11.0918 15.1377 13.8178 16.5815C14.2532 16.8149 14.7523 16.9015 15.2408 16.8284C15.7293 16.7552 16.1812 16.5262 16.529 16.1754L17.5764 15.1275C17.8594 14.8459 18.2423 14.6879 18.6414 14.6879C19.0406 14.6879 19.4235 14.8459 19.7065 15.1275L23.5611 18.9814C23.8425 19.2643 24.0005 19.647 24.0005 20.046C24.0005 20.445 23.8425 20.8277 23.5611 21.1105Z" fill="white"/>
</g>
<defs>
<clipPath id="clip0_6_42">
<rect width="24" height="24" fill="white"/>
</clipPath>
</defs>
</svg>
