<svg width="545" height="333" viewBox="0 0 545 333" fill="none" xmlns="http://www.w3.org/2000/svg">
<g clip-path="url(#clip0_25_848)">
<path d="M125.093 232.276L61.9804 469.794C56.8123 489.082 68.0355 508.521 87.3231 513.689L254.977 558.611C274.265 563.78 293.704 552.556 298.872 533.269L366.455 281.046C369.422 281.841 371.93 280.393 372.725 277.426L383.327 237.862C384.122 234.894 382.673 232.386 379.706 231.591L399.583 157.408C404.752 138.12 393.528 118.681 374.241 113.513L206.587 68.5902C187.299 63.4221 167.86 74.6453 162.692 93.9329L157.391 113.715L156.897 113.583C153.93 112.787 151.421 114.236 150.626 117.203L146.651 132.04C145.856 135.007 147.304 137.515 150.271 138.31L150.766 138.443L146.79 153.279L146.296 153.147C143.328 152.352 140.82 153.8 140.025 156.767L133.399 181.495C132.604 184.462 134.052 186.971 137.02 187.766L137.514 187.898L134.864 197.789L134.369 197.657C131.402 196.862 128.894 198.31 128.099 201.277L121.473 226.005C120.678 228.972 122.126 231.48 125.093 232.276ZM238.061 87.6248L336.972 114.128L335.647 119.073C334.189 124.514 328.545 127.772 323.105 126.314L243.976 105.112C238.536 103.654 235.278 98.0105 236.736 92.5704L238.061 87.6248ZM172.583 96.5832C176.294 82.7357 190.089 74.7708 203.937 78.4813L228.17 84.9745L226.845 89.9201C223.929 100.8 230.446 112.087 241.326 115.003L320.455 136.205C331.335 139.121 342.622 132.604 345.538 121.724L346.863 116.778L371.59 123.404C385.438 127.114 393.403 140.91 389.692 154.757L288.981 530.618C285.27 544.466 271.475 552.431 257.627 548.72L89.9734 503.798C76.1259 500.087 68.1611 486.292 71.8715 472.444L172.583 96.5832Z" fill="white"/>
</g>
<defs>
<clipPath id="clip0_25_848">
<rect width="512" height="512" fill="white" transform="translate(49.5154) rotate(15)"/>
</clipPath>
</defs>
</svg>
